<svg xmlns="http://www.w3.org/2000/svg" aria-label="ExoJS e. on light" role="img" viewBox="0 0 64 64"><rect width="64" height="64" fill="#f8f8f3" rx="18"/><path fill="#1a1f1c" d="M13.55 36.55q0-3.8 1.58-6.75 1.57-2.95 4.39-4.58 2.83-1.62 6.43-1.62 3.55 0 6.25 1.55t4.2 4.4 1.5 6.6v2.25H19.2q.15 2.85 2.13 4.7 1.97 1.85 4.92 1.85 2.55 0 4.07-1.15 1.53-1.15 2.43-3.05l4.55 2.45q-1.5 2.7-4.07 4.6-2.58 1.9-7.08 1.9-3.7 0-6.58-1.68-2.87-1.67-4.44-4.64-1.58-2.98-1.58-6.83m18.75-2.4q-.25-2.65-1.95-4.22-1.7-1.58-4.45-1.58-2.8 0-4.55 1.58-1.75 1.57-2.1 4.22z"/><circle cx="48.8" cy="43.6" r="5.8" fill="#1aa864"/></svg>