<svg xmlns="http://www.w3.org/2000/svg" aria-label="ExoJS e. mark" role="img" style="color:#ecf2ee" viewBox="0 0 64 64"><path fill="currentColor" d="M10.67 36.55q0-4.1 1.71-7.29 1.7-3.18 4.75-4.94 3.05-1.75 6.94-1.75 3.83 0 6.75 1.67 2.91 1.68 4.53 4.75 1.62 3.08 1.62 7.13v2.43H16.78q.16 3.08 2.29 5.08t5.32 2q2.75 0 4.4-1.25 1.65-1.24 2.62-3.29l4.91 2.65q-1.62 2.91-4.4 4.96-2.78 2.06-7.64 2.06-3.99 0-7.1-1.81-3.1-1.81-4.8-5.03-1.71-3.21-1.71-7.37m20.25-2.59q-.27-2.86-2.1-4.56-1.84-1.7-4.81-1.7-3.02 0-4.91 1.7t-2.27 4.56z"/><circle cx="50" cy="44" r="6" fill="#7af5a8"/></svg>