<svg xmlns="http://www.w3.org/2000/svg" aria-label="ExoJS" role="img" style="color:#ecf2ee" viewBox="0 0 284 104"><path fill="currentColor" d="M14.3 22h45.3v10.5H25.9v19h30.9V62H25.9v19.5h34.3V92H14.3zm48.5 20.7h12.9l12.7 17.7h1l12.7-17.7H115L97.1 67.1 115.3 92h-13.1L89.4 73.8h-1L75.6 92H62.5l18.2-24.9zm54.7 24.6q0-7.8 3.3-13.7t9.15-9.1 13.25-3.2 13.2 3.2 9.1 9.1 3.3 13.7q0 7.9-3.3 13.8t-9.1 9.1-13.2 3.2-13.25-3.2-9.15-9.15-3.3-13.75m11 0q0 7.6 4.05 12.05t10.65 4.45q6.5 0 10.55-4.45t4.05-12.05-4.05-12-10.55-4.4q-6.6 0-10.65 4.45T128.5 67.3m88.1 3.7q0 10.8-5.7 16.6t-16 5.8q-10.7 0-16.9-5.9T171.8 71v-6.2h11.6V71q0 5.6 2.9 8.75t8.3 3.15q5.2 0 7.85-3.1t2.65-8.8V22h11.5zm32.2-50.4q11.5 0 18.55 5.8T274.4 43v2.2H263V43q0-6.3-3.75-9.25T248.8 30.8q-6.2 0-9.55 2.45t-3.35 6.95q0 4.3 3.05 6.6t9.95 3.9l3.3.8q11.5 2.5 17.45 7.15t5.95 13.55q0 6.3-3.2 11.1t-9.15 7.45-13.75 2.65q-8 0-14.15-2.85t-9.6-8.35T222.3 69v-.9h11.4v.9q0 7 4.15 10.6t11.65 3.6q7 0 10.85-2.9t3.85-7.8q0-4.5-3.4-6.8t-10.9-4l-3.3-.7q-11.2-2.5-16.65-7.05T224.5 40.6q0-9.3 6.6-14.65t17.7-5.35"/><circle cx="223.75" cy="12" r="7" fill="#7af5a8"/></svg>